<svg width="16" height="16" viewBox="0 0 16 16" fill="none" xmlns="http://www.w3.org/2000/svg">
<path d="M7.39909 2.53571H3.60809C2.35187 2.53571 1.3335 3.55405 1.3335 4.81024V12.3921C1.3335 13.6482 2.35187 14.6666 3.60809 14.6666H11.1901C12.4463 14.6666 13.4647 13.6482 13.4647 12.3921L13.4647 8.60115M5.12449 10.8756L7.88306 10.3198C8.02951 10.2903 8.16397 10.2182 8.26958 10.1125L14.4449 3.93403C14.741 3.6378 14.7408 3.15763 14.4445 2.86165L13.1363 1.55501C12.8401 1.25916 12.3602 1.25936 12.0642 1.55546L5.88823 7.73462C5.78283 7.84008 5.71086 7.97426 5.68133 8.1204L5.12449 10.8756Z" stroke="#39383A" stroke-linecap="round" stroke-linejoin="round"/>
</svg>
