<svg width="25" height="24" viewBox="0 0 25 24" fill="none" xmlns="http://www.w3.org/2000/svg">
<path d="M21.3 19.5L6.30002 4.5M11.1 10.4416C10.7266 10.8533 10.5 11.394 10.5 11.9863C10.5 13.2761 11.5745 14.3217 12.9 14.3217C13.5112 14.3217 14.069 14.0994 14.4927 13.7334M21.3388 14.3217C22.165 13.0848 22.5 12.0761 22.5 12.0761C22.5 12.0761 20.3154 5.1 12.9 5.1C12.4837 5.1 12.0839 5.12199 11.7 5.16349M18.3 17.3494C16.9226 18.2281 15.1493 18.8495 12.9 18.8127C5.57694 18.693 3.30002 12.0761 3.30002 12.0761C3.30002 12.0761 4.35787 8.69808 7.50002 6.64332" stroke="#39383A" stroke-width="2" stroke-linecap="round"/>
</svg>
