<svg width="25" height="24" viewBox="0 0 25 24" fill="none" xmlns="http://www.w3.org/2000/svg">
<path d="M12.9 21C17.8706 21 21.9 16.9706 21.9 12C21.9 7.02944 17.8706 3 12.9 3M12.9 21C7.92946 21 3.90002 16.9706 3.90002 12C3.90002 7.02944 7.92946 3 12.9 3M12.9 21C10.7254 21 8.96252 16.9706 8.96252 12C8.96252 7.02944 10.7254 3 12.9 3M12.9 21C15.0746 21 16.8375 16.9706 16.8375 12C16.8375 7.02944 15.0746 3 12.9 3M5.58752 16.3744C7.23635 15.4302 9.97575 14.8125 13.0764 14.8125C16.3125 14.8125 19.1551 15.4854 20.775 16.5M5.58752 7.62558C7.23635 8.56975 9.97575 9.1875 13.0764 9.1875C16.3125 9.1875 19.1551 8.5146 20.775 7.5" stroke="#39383A" stroke-width="2"/>
</svg>
