<svg width="16" height="16" viewBox="0 0 16 16" fill="none" xmlns="http://www.w3.org/2000/svg">
<path d="M14.6666 14H1.33325V12.6667H1.99992V2.66667C1.99992 2.29848 2.2984 2 2.66659 2H11.9999C12.3681 2 12.6666 2.29848 12.6666 2.66667V6H13.9999V12.6667H14.6666V14ZM11.3333 12.6667H12.6666V7.33333H8.66659V12.6667H9.99992V8.66667H11.3333V12.6667ZM11.3333 6V3.33333H3.33325V12.6667H7.33325V6H11.3333ZM4.66659 7.33333H5.99992V8.66667H4.66659V7.33333ZM4.66659 10H5.99992V11.3333H4.66659V10ZM4.66659 4.66667H5.99992V6H4.66659V4.66667Z" fill="#39383A"/>
</svg>
