<svg width="25" height="24" viewBox="0 0 25 24" fill="none" xmlns="http://www.w3.org/2000/svg">
<path d="M12.901 9C11.2436 9 9.901 10.3431 9.901 12C9.901 13.6573 11.2441 15 12.901 15C14.5583 15 15.901 13.6569 15.901 12C15.901 10.3427 14.5579 9 12.901 9ZM12.901 7C15.6614 7 17.901 9.2371 17.901 12C17.901 14.7605 15.6639 17 12.901 17C10.1405 17 7.901 14.7629 7.901 12C7.901 9.23953 10.1381 7 12.901 7ZM19.401 6.74915C19.401 7.43926 18.8402 7.99917 18.151 7.99917C17.4609 7.99917 16.901 7.4384 16.901 6.74915C16.901 6.0599 17.4617 5.5 18.151 5.5C18.8393 5.49913 19.401 6.0599 19.401 6.74915ZM12.901 4C10.4265 4 10.0232 4.00655 8.87229 4.0578C8.08817 4.09461 7.56255 4.20007 7.07418 4.38967C6.64018 4.55799 6.32711 4.75898 5.99354 5.09255C5.65869 5.4274 5.45806 5.73963 5.29042 6.17383C5.10038 6.66332 4.99495 7.18811 4.9588 7.97115C4.90705 9.0752 4.901 9.46105 4.901 12C4.901 14.4745 4.90755 14.8778 4.95879 16.0286C4.99562 16.8124 5.10122 17.3388 5.29036 17.826C5.45912 18.2606 5.66052 18.5744 5.99248 18.9064C6.32865 19.2421 6.64181 19.4434 7.07189 19.6094C7.56621 19.8005 8.0915 19.9061 8.87214 19.9422C9.9762 19.9939 10.3621 20 12.901 20C15.3755 20 15.7788 19.9934 16.9296 19.9422C17.7117 19.9055 18.2385 19.7996 18.727 19.6106C19.1604 19.4423 19.4752 19.2402 19.8074 18.9085C20.1436 18.5718 20.3445 18.2594 20.5107 17.8283C20.7013 17.3358 20.8071 16.8098 20.8432 16.0289C20.8949 14.9248 20.901 14.5389 20.901 12C20.901 9.52552 20.8944 9.12221 20.8432 7.97137C20.8064 7.18906 20.7005 6.66149 20.5113 6.17318C20.3434 5.74038 20.1417 5.42635 19.8084 5.09255C19.473 4.75715 19.1616 4.55693 18.7271 4.38942C18.238 4.19954 17.7124 4.09396 16.9298 4.05781C15.8258 4.00605 15.4399 4 12.901 4ZM12.901 2C15.6176 2 15.9568 2.01 17.0235 2.06C18.0876 2.10917 18.8135 2.2775 19.451 2.525C20.1101 2.77917 20.6668 3.1225 21.2226 3.67833C21.7776 4.23417 22.121 4.7925 22.376 5.45C22.6226 6.08667 22.791 6.81333 22.841 7.8775C22.8885 8.94417 22.901 9.28333 22.901 12C22.901 14.7167 22.891 15.0558 22.841 16.1225C22.7918 17.1867 22.6226 17.9125 22.376 18.55C22.1218 19.2092 21.7776 19.7658 21.2226 20.3217C20.6668 20.8767 20.1076 21.22 19.451 21.475C18.8135 21.7217 18.0876 21.89 17.0235 21.94C15.9568 21.9875 15.6176 22 12.901 22C10.1843 22 9.84516 21.99 8.7785 21.94C7.71433 21.8908 6.98933 21.7217 6.351 21.475C5.69266 21.2208 5.13516 20.8767 4.57933 20.3217C4.0235 19.7658 3.681 19.2067 3.426 18.55C3.1785 17.9125 3.011 17.1867 2.961 16.1225C2.9135 15.0558 2.901 14.7167 2.901 12C2.901 9.28333 2.911 8.94417 2.961 7.8775C3.01016 6.8125 3.1785 6.0875 3.426 5.45C3.68016 4.79167 4.0235 4.23417 4.57933 3.67833C5.13516 3.1225 5.6935 2.78 6.351 2.525C6.9885 2.2775 7.7135 2.11 8.7785 2.06C9.84516 2.0125 10.1843 2 12.901 2Z" fill="#39383A"/>
</svg>
