<svg width="25" height="24" viewBox="0 0 25 24" fill="none" xmlns="http://www.w3.org/2000/svg">
<path d="M12.901 9.55005C13.8181 8.61327 15.0121 8 16.401 8C19.4385 8 21.901 10.4624 21.901 13.5V21H19.901V13.5C19.901 11.567 18.334 10 16.401 10C14.468 10 12.901 11.567 12.901 13.5V21H10.901V8.5H12.901V9.55005ZM5.901 6.5C5.07257 6.5 4.401 5.82843 4.401 5C4.401 4.17157 5.07257 3.5 5.901 3.5C6.72942 3.5 7.401 4.17157 7.401 5C7.401 5.82843 6.72942 6.5 5.901 6.5ZM4.901 8.5H6.901V21H4.901V8.5Z" fill="#39383A"/>
</svg>
