<svg width="114" height="148" viewBox="0 0 114 148" fill="none" xmlns="http://www.w3.org/2000/svg">
<path fill-rule="evenodd" clip-rule="evenodd" d="M90.1277 53.799L90.1255 91.2787C92.5336 91.1235 94.2665 90.964 96.1389 90.3507C101.493 88.5973 105.206 84.8983 106.977 79.9357C107.416 78.7051 107.543 77.3968 107.77 76.0213L107.761 69.0418C106.505 59.7004 100.628 54.6195 90.1277 53.799Z" fill="#98D2F0"/>
<path fill-rule="evenodd" clip-rule="evenodd" d="M62.7164 28.5112L62.7164 73.0855C64.0142 83.4434 70.5708 88.7415 80.2038 90.6072L80.2129 43.3714C79.9479 41.6214 79.5509 40.0661 79.0219 38.7057C77.483 35.3208 75.3238 32.7779 72.5443 31.077C70.6947 29.8523 68.4193 29.0496 65.7182 28.6689C64.7811 28.6012 63.7806 28.5486 62.7164 28.5112Z" fill="#98D2F0"/>
<path fill-rule="evenodd" clip-rule="evenodd" d="M34.1934 3.49549L34.2232 74.2629C34.4674 76.1615 34.7025 78.8836 34.9777 80.723C35.7541 84.8028 36.618 87.3827 38.4138 90.9011C40.5766 95.1392 43.8371 100.196 47.6128 103.715C52.7025 108.458 59.6128 112.849 68.6332 115.559C72.9998 116.971 76.445 116.947 79.9872 117.384L108.535 117.372C108.34 115.509 108.377 114.269 107.731 112.498C105.82 107.257 101.109 102.235 91.9408 101.321L80.5613 101.181C78.0778 100.763 76.9816 100.929 74.5935 100.272C70.0104 99.0094 65.2309 96.9709 61.1206 93.1927C57.6651 90.0168 54.6279 85.7089 52.6327 79.6759C52.1293 78.1537 52.2282 76.4257 51.8425 74.685L51.8357 19.2841C51.6738 17.3885 51.3452 15.7123 50.8497 14.2554C49.8398 11.7578 48.451 9.69309 46.6833 8.06137C44.0309 5.82794 40.9168 4.35215 37.3391 3.63399C36.6605 3.62849 35.6119 3.58232 34.1934 3.49549Z" fill="#98D2F0"/>
<path fill-rule="evenodd" clip-rule="evenodd" d="M4.09672 71.7306C14.4786 72.0244 21.0653 77.5301 23.9783 85.5432C26.8257 95.9372 32.6469 105.08 41.0112 112.216C50.1355 120.722 62.4105 126.443 78.9099 127.679L108.362 127.796C108.107 136.431 102.288 142.505 92.4469 143.867L79.0375 143.855C58.8921 142.666 41.9316 135.91 28.1568 123.588C23.8519 119.99 20.1649 115.943 17.097 111.448C8.86026 100.387 4.52684 87.1483 4.09672 71.7306Z" fill="#98D2F0"/>
</svg>
