<svg width="476" height="633" viewBox="0 0 476 633" fill="none" xmlns="http://www.w3.org/2000/svg">
<path d="M100.152 227.832C100.709 227.787 101.258 227.977 101.668 228.355C102.078 228.734 102.312 229.267 102.312 229.825L102.321 389.894C102.321 390.448 102.091 390.976 101.688 391.354C101.284 391.732 100.741 391.926 100.19 391.89C90.1524 391.226 82.7009 390.536 74.631 387.827C51.7306 380.139 35.8019 363.879 28.2247 342.107C26.3193 336.632 25.7521 330.748 24.8351 325.051C24.8181 324.945 24.8096 324.837 24.8097 324.73L24.8478 294.922L24.8517 294.793C24.8545 294.75 24.8588 294.707 24.8644 294.664C27.5278 274.353 35.1282 258.47 47.8107 247.231C60.4744 236.01 77.994 229.607 100.152 227.832Z" fill="white" stroke="white" stroke-width="4" stroke-linecap="square" stroke-linejoin="round"/>
<path d="M214.441 119.827C214.984 119.808 215.511 120.01 215.902 120.387C216.293 120.764 216.513 121.283 216.513 121.826V312.195C216.513 312.276 216.508 312.357 216.499 312.438C213.748 334.939 205.398 352.099 192.503 364.645C179.628 377.17 162.373 384.953 142.047 388.989C141.459 389.105 140.85 388.952 140.387 388.573C139.925 388.193 139.657 387.625 139.657 387.027L139.619 185.292C139.619 185.194 139.626 185.096 139.64 184.999C140.761 177.412 142.446 170.626 144.711 164.656C144.724 164.621 144.738 164.587 144.753 164.554C151.3 149.792 160.538 138.598 172.505 131.09C180.501 125.679 190.262 122.176 201.721 120.521L201.859 120.505C205.791 120.214 209.986 119.988 214.441 119.827Z" fill="white" stroke="white" stroke-width="4" stroke-linecap="square" stroke-linejoin="round"/>
<path d="M333.222 12.9924C333.773 12.958 334.314 13.1526 334.716 13.5305C335.119 13.9087 335.347 14.4372 335.347 14.9895L335.223 317.224C335.223 317.307 335.218 317.39 335.207 317.472C334.213 325.394 333.201 337.272 332.058 345.102C332.054 345.127 332.05 345.153 332.045 345.178C328.779 362.771 325.125 373.969 317.554 389.173C308.632 407.095 295.211 428.523 279.567 443.736L278.82 444.455C257.408 464.906 228.357 483.822 190.472 495.497C172.042 501.6 157.295 501.536 142.809 503.368C142.726 503.379 142.641 503.384 142.557 503.384L23.6195 503.332C23.054 503.332 22.5151 503.092 22.1361 502.672C21.7571 502.252 21.5736 501.691 21.6312 501.128C22.4239 493.391 22.2896 487.71 25.0844 479.849C33.2885 456.781 53.5399 434.781 92.5531 430.794L92.7308 430.783L139.989 430.187C145.161 429.302 148.954 429.024 152.533 428.638C156.141 428.249 159.653 427.741 164.487 426.377L166.261 425.866C184.614 420.495 203.502 411.96 219.789 396.613C233.939 383.282 246.41 365.174 254.62 339.727C255.597 336.7 256.005 333.421 256.365 329.833C256.712 326.37 257.018 322.605 257.816 318.823L257.845 82.4182C257.845 82.3629 257.847 82.3073 257.852 82.2522C258.536 74.0349 259.93 66.715 262.054 60.3118C262.066 60.2769 262.079 60.2425 262.092 60.2083C266.393 49.3048 272.333 40.2302 279.936 33.0354C279.958 33.0145 279.981 32.9947 280.004 32.9749C291.324 23.2038 304.613 16.7543 319.838 13.6213L320.031 13.5911C320.095 13.5843 320.159 13.5809 320.224 13.5803C322.994 13.5573 327.318 13.3629 333.222 12.9924Z" fill="white" stroke="white" stroke-width="4" stroke-linecap="square" stroke-linejoin="round"/>
<path d="M458.681 304.409C459.23 304.393 459.762 304.605 460.151 304.993C460.54 305.382 460.752 305.913 460.737 306.463C458.936 372.643 440.786 429.577 406.219 477.174C393.34 496.512 377.866 513.918 359.811 529.39C302.062 582.329 230.968 611.331 146.637 616.433C146.597 616.435 146.558 616.436 146.519 616.437L90.6514 616.491C90.5567 616.491 90.4619 616.485 90.3682 616.472C69.5142 613.513 52.7612 605.409 41.0752 593.203C29.3789 580.987 22.8877 564.793 22.3428 545.912C22.3272 545.373 22.5296 544.851 22.9043 544.464C23.2791 544.076 23.795 543.857 24.334 543.854L146.962 543.354C215.24 538.096 265.916 513.842 303.562 477.867L303.627 477.808C338.176 447.593 362.214 408.89 373.975 364.883L374.021 364.73C380.201 347.305 390.311 332.523 404.456 321.939C418.608 311.351 436.692 305.047 458.681 304.409Z" fill="white" stroke="white" stroke-width="4" stroke-linecap="square" stroke-linejoin="round"/>
</svg>
