<svg width="114" height="148" viewBox="0 0 114 148" fill="none" xmlns="http://www.w3.org/2000/svg">
<path fill-rule="evenodd" clip-rule="evenodd" d="M90.1275 53.7988L90.1253 91.2786C92.5334 91.1234 94.2663 90.9638 96.1386 90.3506C101.493 88.5972 105.206 84.8982 106.977 79.9355C107.416 78.7049 107.543 77.3967 107.77 76.0212L107.761 69.0417C106.505 59.7003 100.627 54.6194 90.1275 53.7988Z" fill="#FFD4B5"/>
<path fill-rule="evenodd" clip-rule="evenodd" d="M62.7164 28.5112L62.7164 73.0855C64.0142 83.4434 70.5708 88.7415 80.2038 90.6072L80.2129 43.3714C79.9479 41.6214 79.5509 40.0661 79.0219 38.7057C77.483 35.3208 75.3238 32.7779 72.5443 31.077C70.6947 29.8523 68.4193 29.0496 65.7182 28.6689C64.7811 28.6012 63.7806 28.5486 62.7164 28.5112Z" fill="#FFD4B5"/>
<path fill-rule="evenodd" clip-rule="evenodd" d="M34.1936 3.49537L34.2234 74.2628C34.4676 76.1613 34.7027 78.8834 34.9779 80.7229C35.7543 84.8027 36.6182 87.3826 38.414 90.901C40.5768 95.1391 43.8373 100.196 47.6131 103.715C52.7028 108.457 59.6131 112.848 68.6334 115.559C73 116.971 76.4452 116.947 79.9875 117.384L108.535 117.371C108.34 115.509 108.377 114.269 107.732 112.498C105.821 107.256 101.109 102.235 91.9411 101.321L80.5616 101.181C78.0781 100.763 76.9818 100.929 74.5937 100.272C70.0106 99.0093 65.2312 96.9708 61.1209 93.1926C57.6654 90.0166 54.6282 85.7088 52.6329 79.6758C52.1295 78.1536 52.2284 76.4256 51.8428 74.6849L51.8359 19.2839C51.6741 17.3884 51.3454 15.7122 50.8499 14.2552C49.84 11.7576 48.4512 9.69297 46.6836 8.06124C44.0312 5.82782 40.917 4.35203 37.3394 3.63387C36.6608 3.62836 35.6122 3.5822 34.1936 3.49537Z" fill="#FFD4B5"/>
<path fill-rule="evenodd" clip-rule="evenodd" d="M4.09647 71.7307C14.4783 72.0246 21.065 77.5303 23.9781 85.5433C26.8255 95.9373 32.6467 105.08 41.011 112.216C50.1353 120.722 62.4103 126.443 78.9097 127.679L108.362 127.796C108.107 136.431 102.287 142.505 92.4467 143.868L79.0373 143.855C58.8918 142.666 41.9314 135.91 28.1565 123.588C23.8517 119.99 20.1647 115.943 17.0967 111.448C8.86001 100.388 4.52659 87.1485 4.09647 71.7307Z" fill="#FFD4B5"/>
</svg>
