<svg width="44" height="60" viewBox="0 0 44 60" fill="none" xmlns="http://www.w3.org/2000/svg">
<path fill-rule="evenodd" clip-rule="evenodd" d="M9.2139 21.8104L9.21477 37.0049C8.28531 36.942 7.61648 36.8773 6.89381 36.6287C4.82732 35.9179 3.39406 34.4183 2.71071 32.4064C2.54126 31.9075 2.4922 31.3771 2.4046 30.8195L2.40812 27.9899C2.89276 24.2029 5.16136 22.1431 9.2139 21.8104Z" fill="#50B1E4"/>
<path fill-rule="evenodd" clip-rule="evenodd" d="M19.7937 11.5586V29.6293C19.2928 33.8284 16.7622 35.9763 13.0442 36.7326L13.0406 17.583C13.1429 16.8735 13.2961 16.243 13.5003 15.6915C14.0943 14.3192 14.9277 13.2883 16.0004 12.5988C16.7143 12.1023 17.5926 11.7768 18.6351 11.6225C18.9968 11.5951 19.383 11.5738 19.7937 11.5586Z" fill="#50B1E4"/>
<path fill-rule="evenodd" clip-rule="evenodd" d="M30.8025 1.41712L30.791 30.1066C30.6968 30.8763 30.606 31.9799 30.4998 32.7256C30.2001 34.3796 29.8667 35.4255 29.1736 36.8518C28.3388 38.57 27.0804 40.6202 25.6231 42.0468C23.6586 43.9693 20.9915 45.7494 17.51 46.8485C15.8246 47.4206 14.4949 47.4109 13.1277 47.5881L2.10919 47.5831C2.18471 46.8279 2.17032 46.3254 2.41941 45.6075C3.157 43.4824 4.97533 41.4467 8.51401 41.0762L12.9061 41.0194C13.8647 40.8499 14.2878 40.9173 15.2095 40.6507C16.9784 40.139 18.8231 39.3126 20.4095 37.7809C21.7432 36.4933 22.9155 34.7469 23.6856 32.3011C23.8799 31.684 23.8417 30.9834 23.9906 30.2777L23.9932 7.81789C24.0557 7.04943 24.1825 6.36989 24.3738 5.77923C24.7635 4.76668 25.2996 3.92966 25.9818 3.26815C27.0056 2.36271 28.2075 1.76441 29.5884 1.47327C29.8503 1.47103 30.255 1.45232 30.8025 1.41712Z" fill="#50B1E4"/>
<path fill-rule="evenodd" clip-rule="evenodd" d="M42.4189 29.08C38.4119 29.1991 35.8696 31.4311 34.7453 34.6797C33.6463 38.8934 31.3995 42.5999 28.1712 45.4929C24.6495 48.9412 19.9118 51.2606 13.5436 51.7618L2.17603 51.8093C2.27462 55.3098 4.52065 57.7724 8.31881 58.3246L13.4944 58.3194C21.2698 57.8375 27.8159 55.0987 33.1325 50.1032C34.7941 48.6445 36.2171 47.004 37.4012 45.1815C40.5803 40.6976 42.2529 35.3304 42.4189 29.08Z" fill="#50B1E4"/>
</svg>
