<svg width="101" height="28" viewBox="0 0 101 28" fill="none" xmlns="http://www.w3.org/2000/svg">
<g clip-path="url(#clip0_790_624)">
<path d="M1.776 22V4.96H9C9.784 4.96 10.504 5.12 11.16 5.44C11.816 5.76 12.384 6.192 12.864 6.736C13.36 7.28 13.744 7.888 14.016 8.56C14.288 9.232 14.424 9.92 14.424 10.624C14.424 11.584 14.2 12.496 13.752 13.36C13.304 14.224 12.688 14.928 11.904 15.472C11.12 16.016 10.192 16.288 9.12 16.288H5.088V22H1.776ZM5.088 13.384H8.928C9.328 13.384 9.688 13.272 10.008 13.048C10.328 12.824 10.584 12.504 10.776 12.088C10.968 11.656 11.064 11.168 11.064 10.624C11.064 10.032 10.952 9.528 10.728 9.112C10.52 8.696 10.24 8.384 9.888 8.176C9.552 7.968 9.184 7.864 8.784 7.864H5.088V13.384ZM21.9673 22.24C20.9433 22.24 20.0233 22.072 19.2073 21.736C18.3913 21.384 17.6953 20.904 17.1193 20.296C16.5593 19.688 16.1273 18.992 15.8233 18.208C15.5193 17.424 15.3673 16.6 15.3673 15.736C15.3673 14.856 15.5193 14.024 15.8233 13.24C16.1273 12.456 16.5593 11.76 17.1193 11.152C17.6953 10.544 18.3913 10.072 19.2073 9.736C20.0233 9.384 20.9433 9.208 21.9673 9.208C22.9913 9.208 23.9033 9.384 24.7033 9.736C25.5193 10.072 26.2153 10.544 26.7913 11.152C27.3673 11.76 27.7993 12.456 28.0873 13.24C28.3913 14.024 28.5433 14.856 28.5433 15.736C28.5433 16.6 28.3913 17.424 28.0873 18.208C27.7993 18.992 27.3673 19.688 26.7913 20.296C26.2313 20.904 25.5433 21.384 24.7273 21.736C23.9113 22.072 22.9913 22.24 21.9673 22.24ZM18.6793 15.736C18.6793 16.472 18.8233 17.128 19.1113 17.704C19.3993 18.264 19.7913 18.704 20.2873 19.024C20.7833 19.344 21.3433 19.504 21.9673 19.504C22.5753 19.504 23.1273 19.344 23.6233 19.024C24.1193 18.688 24.5113 18.24 24.7993 17.68C25.1033 17.104 25.2553 16.448 25.2553 15.712C25.2553 14.992 25.1033 14.344 24.7993 13.768C24.5113 13.192 24.1193 12.744 23.6233 12.424C23.1273 12.104 22.5753 11.944 21.9673 11.944C21.3433 11.944 20.7833 12.112 20.2873 12.448C19.7913 12.768 19.3993 13.216 19.1113 13.792C18.8233 14.352 18.6793 15 18.6793 15.736ZM30.69 4.48H33.906V17.968C33.906 18.544 34.002 18.936 34.194 19.144C34.386 19.336 34.65 19.432 34.986 19.432C35.242 19.432 35.506 19.4 35.778 19.336C36.05 19.272 36.29 19.192 36.498 19.096L36.93 21.544C36.498 21.752 35.994 21.912 35.418 22.024C34.842 22.136 34.322 22.192 33.858 22.192C32.85 22.192 32.066 21.928 31.506 21.4C30.962 20.856 30.69 20.088 30.69 19.096V4.48ZM45.8672 22.24C44.8912 22.24 44.0272 22.024 43.2752 21.592C42.5392 21.144 41.9632 20.544 41.5472 19.792V27.112H38.3312V9.424H41.1392V11.584C41.6192 10.848 42.2272 10.272 42.9632 9.856C43.6992 9.424 44.5392 9.208 45.4832 9.208C46.3312 9.208 47.1072 9.376 47.8112 9.712C48.5312 10.048 49.1552 10.52 49.6832 11.128C50.2112 11.72 50.6192 12.408 50.9072 13.192C51.2112 13.96 51.3632 14.792 51.3632 15.688C51.3632 16.904 51.1232 18.008 50.6432 19C50.1792 19.992 49.5312 20.784 48.6992 21.376C47.8832 21.952 46.9392 22.24 45.8672 22.24ZM44.7872 19.504C45.2832 19.504 45.7312 19.4 46.1312 19.192C46.5312 18.984 46.8752 18.704 47.1632 18.352C47.4672 17.984 47.6912 17.576 47.8352 17.128C47.9952 16.664 48.0752 16.184 48.0752 15.688C48.0752 15.16 47.9872 14.672 47.8112 14.224C47.6512 13.776 47.4112 13.384 47.0912 13.048C46.7712 12.696 46.3952 12.424 45.9632 12.232C45.5472 12.04 45.0912 11.944 44.5952 11.944C44.2912 11.944 43.9792 12 43.6592 12.112C43.3552 12.208 43.0592 12.352 42.7712 12.544C42.4832 12.736 42.2272 12.96 42.0032 13.216C41.7952 13.472 41.6432 13.752 41.5472 14.056V17.008C41.7392 17.472 41.9952 17.896 42.3152 18.28C42.6512 18.664 43.0352 18.968 43.4672 19.192C43.8992 19.4 44.3392 19.504 44.7872 19.504ZM52.6781 18.28C52.6781 17.464 52.9021 16.752 53.3501 16.144C53.8141 15.52 54.4541 15.04 55.2701 14.704C56.0861 14.368 57.0221 14.2 58.0781 14.2C58.6061 14.2 59.1421 14.24 59.6861 14.32C60.2301 14.4 60.7021 14.528 61.1021 14.704V14.032C61.1021 13.232 60.8621 12.616 60.3821 12.184C59.9181 11.752 59.2221 11.536 58.2941 11.536C57.6061 11.536 56.9501 11.656 56.3261 11.896C55.7021 12.136 55.0461 12.488 54.3581 12.952L53.3261 10.84C54.1581 10.296 55.0061 9.888 55.8701 9.616C56.7501 9.344 57.6701 9.208 58.6301 9.208C60.4221 9.208 61.8141 9.656 62.8061 10.552C63.8141 11.448 64.3181 12.728 64.3181 14.392V18.4C64.3181 18.736 64.3741 18.976 64.4861 19.12C64.6141 19.264 64.8141 19.352 65.0861 19.384V22C64.7981 22.048 64.5341 22.088 64.2941 22.12C64.0701 22.152 63.8781 22.168 63.7181 22.168C63.0781 22.168 62.5901 22.024 62.2541 21.736C61.9341 21.448 61.7341 21.096 61.6541 20.68L61.5821 20.032C61.0381 20.736 60.3581 21.28 59.5421 21.664C58.7261 22.048 57.8941 22.24 57.0461 22.24C56.2141 22.24 55.4621 22.072 54.7901 21.736C54.1341 21.384 53.6141 20.912 53.2301 20.32C52.8621 19.712 52.6781 19.032 52.6781 18.28ZM60.5021 18.928C60.6781 18.736 60.8221 18.544 60.9341 18.352C61.0461 18.16 61.1021 17.984 61.1021 17.824V16.552C60.7181 16.392 60.3021 16.272 59.8541 16.192C59.4061 16.096 58.9821 16.048 58.5821 16.048C57.7501 16.048 57.0621 16.232 56.5181 16.6C55.9901 16.952 55.7261 17.424 55.7261 18.016C55.7261 18.336 55.8141 18.64 55.9901 18.928C56.1661 19.216 56.4221 19.448 56.7581 19.624C57.0941 19.8 57.4941 19.888 57.9581 19.888C58.4381 19.888 58.9101 19.8 59.3741 19.624C59.8381 19.432 60.2141 19.2 60.5021 18.928Z" fill="#50B1E4"/>
<path d="M70.0994 12.88V22H67.3394V7.8H69.5394L76.8794 17.16V7.82H79.6394V22H77.3394L70.0994 12.88ZM87.0175 22.2C86.1775 22.2 85.4175 22.06 84.7375 21.78C84.0575 21.4867 83.4775 21.0933 82.9975 20.6C82.5175 20.0933 82.1442 19.52 81.8775 18.88C81.6242 18.2267 81.4975 17.54 81.4975 16.82C81.4975 15.82 81.7175 14.9067 82.1575 14.08C82.6108 13.2533 83.2508 12.5933 84.0775 12.1C84.9175 11.5933 85.9042 11.34 87.0375 11.34C88.1842 11.34 89.1642 11.5933 89.9775 12.1C90.7908 12.5933 91.4108 13.2533 91.8375 14.08C92.2775 14.8933 92.4975 15.7733 92.4975 16.72C92.4975 16.88 92.4908 17.0467 92.4775 17.22C92.4642 17.38 92.4508 17.5133 92.4375 17.62H84.3375C84.3908 18.1533 84.5442 18.62 84.7975 19.02C85.0642 19.42 85.3975 19.7267 85.7975 19.94C86.2108 20.14 86.6508 20.24 87.1175 20.24C87.6508 20.24 88.1508 20.1133 88.6175 19.86C89.0975 19.5933 89.4242 19.2467 89.5975 18.82L91.8975 19.46C91.6442 19.9933 91.2775 20.4667 90.7975 20.88C90.3308 21.2933 89.7775 21.62 89.1375 21.86C88.4975 22.0867 87.7908 22.2 87.0175 22.2ZM84.2775 15.92H89.7575C89.7042 15.3867 89.5508 14.9267 89.2975 14.54C89.0575 14.14 88.7375 13.8333 88.3375 13.62C87.9375 13.3933 87.4908 13.28 86.9975 13.28C86.5175 13.28 86.0775 13.3933 85.6775 13.62C85.2908 13.8333 84.9708 14.14 84.7175 14.54C84.4775 14.9267 84.3308 15.3867 84.2775 15.92ZM100.313 21.46C100.086 21.5533 99.8125 21.66 99.4925 21.78C99.1725 21.9 98.8258 21.9933 98.4525 22.06C98.0925 22.14 97.7258 22.18 97.3525 22.18C96.8592 22.18 96.4058 22.0933 95.9925 21.92C95.5792 21.7467 95.2458 21.4733 94.9925 21.1C94.7525 20.7133 94.6325 20.2133 94.6325 19.6V13.58H93.2525V11.52H94.6325V8.12H97.3125V11.52H99.5125V13.58H97.3125V18.7C97.3258 19.06 97.4258 19.32 97.6125 19.48C97.7992 19.64 98.0325 19.72 98.3125 19.72C98.5925 19.72 98.8658 19.6733 99.1325 19.58C99.3992 19.4867 99.6125 19.4067 99.7725 19.34L100.313 21.46Z" fill="#39383A"/>
</g>
<defs>
<clipPath id="clip0_790_624">
<rect width="101" height="28" fill="white"/>
</clipPath>
</defs>
</svg>
