<svg width="106" height="24" viewBox="0 0 106 24" fill="none" xmlns="http://www.w3.org/2000/svg">
<path d="M0.776 18V0.959999H8C8.784 0.959999 9.504 1.12 10.16 1.44C10.816 1.76 11.384 2.192 11.864 2.736C12.36 3.28 12.744 3.888 13.016 4.56C13.288 5.232 13.424 5.92 13.424 6.624C13.424 7.584 13.2 8.496 12.752 9.36C12.304 10.224 11.688 10.928 10.904 11.472C10.12 12.016 9.192 12.288 8.12 12.288H4.088V18H0.776ZM4.088 9.384H7.928C8.328 9.384 8.688 9.272 9.008 9.048C9.328 8.824 9.584 8.504 9.776 8.088C9.968 7.656 10.064 7.168 10.064 6.624C10.064 6.032 9.952 5.528 9.728 5.112C9.52 4.696 9.24 4.384 8.888 4.176C8.552 3.968 8.184 3.864 7.784 3.864H4.088V9.384ZM20.9673 18.24C19.9433 18.24 19.0233 18.072 18.2073 17.736C17.3913 17.384 16.6953 16.904 16.1193 16.296C15.5593 15.688 15.1273 14.992 14.8233 14.208C14.5193 13.424 14.3673 12.6 14.3673 11.736C14.3673 10.856 14.5193 10.024 14.8233 9.24C15.1273 8.456 15.5593 7.76 16.1193 7.152C16.6953 6.544 17.3913 6.072 18.2073 5.736C19.0233 5.384 19.9433 5.208 20.9673 5.208C21.9913 5.208 22.9033 5.384 23.7033 5.736C24.5193 6.072 25.2153 6.544 25.7913 7.152C26.3673 7.76 26.7993 8.456 27.0873 9.24C27.3913 10.024 27.5433 10.856 27.5433 11.736C27.5433 12.6 27.3913 13.424 27.0873 14.208C26.7993 14.992 26.3673 15.688 25.7913 16.296C25.2313 16.904 24.5433 17.384 23.7273 17.736C22.9113 18.072 21.9913 18.24 20.9673 18.24ZM17.6793 11.736C17.6793 12.472 17.8233 13.128 18.1113 13.704C18.3993 14.264 18.7913 14.704 19.2873 15.024C19.7833 15.344 20.3433 15.504 20.9673 15.504C21.5753 15.504 22.1273 15.344 22.6233 15.024C23.1193 14.688 23.5113 14.24 23.7993 13.68C24.1033 13.104 24.2553 12.448 24.2553 11.712C24.2553 10.992 24.1033 10.344 23.7993 9.768C23.5113 9.192 23.1193 8.744 22.6233 8.424C22.1273 8.104 21.5753 7.944 20.9673 7.944C20.3433 7.944 19.7833 8.112 19.2873 8.448C18.7913 8.768 18.3993 9.216 18.1113 9.792C17.8233 10.352 17.6793 11 17.6793 11.736ZM29.69 0.48H32.906V13.968C32.906 14.544 33.002 14.936 33.194 15.144C33.386 15.336 33.65 15.432 33.986 15.432C34.242 15.432 34.506 15.4 34.778 15.336C35.05 15.272 35.29 15.192 35.498 15.096L35.93 17.544C35.498 17.752 34.994 17.912 34.418 18.024C33.842 18.136 33.322 18.192 32.858 18.192C31.85 18.192 31.066 17.928 30.506 17.4C29.962 16.856 29.69 16.088 29.69 15.096V0.48ZM44.8672 18.24C43.8912 18.24 43.0272 18.024 42.2752 17.592C41.5392 17.144 40.9632 16.544 40.5472 15.792V23.112H37.3312V5.424H40.1392V7.584C40.6192 6.848 41.2272 6.272 41.9632 5.856C42.6992 5.424 43.5392 5.208 44.4832 5.208C45.3312 5.208 46.1072 5.376 46.8112 5.712C47.5312 6.048 48.1552 6.52 48.6832 7.128C49.2112 7.72 49.6192 8.408 49.9072 9.192C50.2112 9.96 50.3632 10.792 50.3632 11.688C50.3632 12.904 50.1232 14.008 49.6432 15C49.1792 15.992 48.5312 16.784 47.6992 17.376C46.8832 17.952 45.9392 18.24 44.8672 18.24ZM43.7872 15.504C44.2832 15.504 44.7312 15.4 45.1312 15.192C45.5312 14.984 45.8752 14.704 46.1632 14.352C46.4672 13.984 46.6912 13.576 46.8352 13.128C46.9952 12.664 47.0752 12.184 47.0752 11.688C47.0752 11.16 46.9872 10.672 46.8112 10.224C46.6512 9.776 46.4112 9.384 46.0912 9.048C45.7712 8.696 45.3952 8.424 44.9632 8.232C44.5472 8.04 44.0912 7.944 43.5952 7.944C43.2912 7.944 42.9792 8 42.6592 8.112C42.3552 8.208 42.0592 8.352 41.7712 8.544C41.4832 8.736 41.2272 8.96 41.0032 9.216C40.7952 9.472 40.6432 9.752 40.5472 10.056V13.008C40.7392 13.472 40.9952 13.896 41.3152 14.28C41.6512 14.664 42.0352 14.968 42.4672 15.192C42.8992 15.4 43.3392 15.504 43.7872 15.504ZM51.6781 14.28C51.6781 13.464 51.9021 12.752 52.3501 12.144C52.8141 11.52 53.4541 11.04 54.2701 10.704C55.0861 10.368 56.0221 10.2 57.0781 10.2C57.6061 10.2 58.1421 10.24 58.6861 10.32C59.2301 10.4 59.7021 10.528 60.1021 10.704V10.032C60.1021 9.232 59.8621 8.616 59.3821 8.184C58.9181 7.752 58.2221 7.536 57.2941 7.536C56.6061 7.536 55.9501 7.656 55.3261 7.896C54.7021 8.136 54.0461 8.488 53.3581 8.952L52.3261 6.84C53.1581 6.296 54.0061 5.888 54.8701 5.616C55.7501 5.344 56.6701 5.208 57.6301 5.208C59.4221 5.208 60.8141 5.656 61.8061 6.552C62.8141 7.448 63.3181 8.728 63.3181 10.392V14.4C63.3181 14.736 63.3741 14.976 63.4861 15.12C63.6141 15.264 63.8141 15.352 64.0861 15.384V18C63.7981 18.048 63.5341 18.088 63.2941 18.12C63.0701 18.152 62.8781 18.168 62.7181 18.168C62.0781 18.168 61.5901 18.024 61.2541 17.736C60.9341 17.448 60.7341 17.096 60.6541 16.68L60.5821 16.032C60.0381 16.736 59.3581 17.28 58.5421 17.664C57.7261 18.048 56.8941 18.24 56.0461 18.24C55.2141 18.24 54.4621 18.072 53.7901 17.736C53.1341 17.384 52.6141 16.912 52.2301 16.32C51.8621 15.712 51.6781 15.032 51.6781 14.28ZM59.5021 14.928C59.6781 14.736 59.8221 14.544 59.9341 14.352C60.0461 14.16 60.1021 13.984 60.1021 13.824V12.552C59.7181 12.392 59.3021 12.272 58.8541 12.192C58.4061 12.096 57.9821 12.048 57.5821 12.048C56.7501 12.048 56.0621 12.232 55.5181 12.6C54.9901 12.952 54.7261 13.424 54.7261 14.016C54.7261 14.336 54.8141 14.64 54.9901 14.928C55.1661 15.216 55.4221 15.448 55.7581 15.624C56.0941 15.8 56.4941 15.888 56.9581 15.888C57.4381 15.888 57.9101 15.8 58.3741 15.624C58.8381 15.432 59.2141 15.2 59.5021 14.928Z" fill="#50B1E4"/>
<path d="M74.865 8.88V18H72.105V3.8H74.305L81.645 13.16V3.82H84.405V18H82.105L74.865 8.88ZM91.7831 18.2C90.9431 18.2 90.1831 18.06 89.5031 17.78C88.8231 17.4867 88.2431 17.0933 87.7631 16.6C87.2831 16.0933 86.9098 15.52 86.6431 14.88C86.3898 14.2267 86.2631 13.54 86.2631 12.82C86.2631 11.82 86.4831 10.9067 86.9231 10.08C87.3765 9.25333 88.0165 8.59333 88.8431 8.1C89.6831 7.59333 90.6698 7.34 91.8031 7.34C92.9498 7.34 93.9298 7.59333 94.7431 8.1C95.5565 8.59333 96.1765 9.25333 96.6031 10.08C97.0431 10.8933 97.2631 11.7733 97.2631 12.72C97.2631 12.88 97.2565 13.0467 97.2431 13.22C97.2298 13.38 97.2165 13.5133 97.2031 13.62H89.1031C89.1565 14.1533 89.3098 14.62 89.5631 15.02C89.8298 15.42 90.1631 15.7267 90.5631 15.94C90.9765 16.14 91.4165 16.24 91.8831 16.24C92.4165 16.24 92.9165 16.1133 93.3831 15.86C93.8631 15.5933 94.1898 15.2467 94.3631 14.82L96.6631 15.46C96.4098 15.9933 96.0431 16.4667 95.5631 16.88C95.0965 17.2933 94.5431 17.62 93.9031 17.86C93.2631 18.0867 92.5565 18.2 91.7831 18.2ZM89.0431 11.92H94.5231C94.4698 11.3867 94.3165 10.9267 94.0631 10.54C93.8231 10.14 93.5031 9.83333 93.1031 9.62C92.7031 9.39333 92.2565 9.28 91.7631 9.28C91.2831 9.28 90.8431 9.39333 90.4431 9.62C90.0565 9.83333 89.7365 10.14 89.4831 10.54C89.2431 10.9267 89.0965 11.3867 89.0431 11.92ZM105.078 17.46C104.851 17.5533 104.578 17.66 104.258 17.78C103.938 17.9 103.591 17.9933 103.218 18.06C102.858 18.14 102.491 18.18 102.118 18.18C101.625 18.18 101.171 18.0933 100.758 17.92C100.345 17.7467 100.011 17.4733 99.7581 17.1C99.5181 16.7133 99.3981 16.2133 99.3981 15.6V9.58H98.0181V7.52H99.3981V4.12H102.078V7.52H104.278V9.58H102.078V14.7C102.091 15.06 102.191 15.32 102.378 15.48C102.565 15.64 102.798 15.72 103.078 15.72C103.358 15.72 103.631 15.6733 103.898 15.58C104.165 15.4867 104.378 15.4067 104.538 15.34L105.078 17.46Z" fill="#39383A"/>
</svg>
